<mxfile host="app.diagrams.net" modified="2023-09-05T06:22:14.297Z" agent="Mozilla/5.0 (Windows NT 10.0; Win64; x64; rv:109.0) Gecko/20100101 Firefox/117.0" version="21.6.5" etag="Ht3tzj3UhUEal00PLdqt" type="github">
  <diagram name="Page-1" id="wWzugX9YJ33JslVZQSdV">
    <mxGraphModel>
      <root>
        <mxCell id="0" />
        <mxCell id="1" parent="0" />
      </root>
    </mxGraphModel>
  </diagram>
</mxfile>
